<svg width="452" height="72" viewBox="0 0 452 72" fill="none" xmlns="http://www.w3.org/2000/svg">
<path d="M10.1778 62.8827C3.39259 56.8153 0 47.847 0 36.0011C0 24.1552 3.45847 15.187 10.3864 9.1196C17.3034 3.05218 26.7675 0.0126953 38.7679 0.0126953C43.7525 0.0126953 48.1552 0.370963 51.9869 1.11061C55.8187 1.8387 59.4858 3.07529 62.9882 4.83196L62.9882 24.0512C57.5425 21.3353 51.3611 19.9716 44.4442 19.9716C38.3507 19.9716 33.8492 21.1851 30.9506 23.6121C28.0411 26.039 26.5918 30.1649 26.5918 36.0011C26.5918 41.6409 28.0191 45.7206 30.8847 48.24C33.7393 50.771 38.2628 52.0307 44.4551 52.0307C51.0098 52.0307 57.235 50.4243 63.1419 47.223L63.1419 67.3321C56.5873 70.4409 48.4187 71.9896 38.6361 71.9896C26.4381 71.9896 16.963 68.9501 10.1778 62.8827Z" fill="black"/>
<path d="M69.0498 35.9884C69.0498 24.235 72.2338 15.3014 78.6018 9.17624C84.9698 3.05104 94.5656 0 107.4 0C120.323 0 129.985 3.0626 136.408 9.17624C142.82 15.2899 146.026 24.235 146.026 35.9884C146.026 59.9807 133.147 71.9769 107.4 71.9769C81.8297 71.9884 69.0498 59.9923 69.0498 35.9884ZM116.612 48.2388C118.5 45.7079 119.445 41.6282 119.445 36C119.445 30.4642 118.5 26.4077 116.612 23.8305C114.724 21.2533 111.649 19.9705 107.4 19.9705C103.25 19.9705 100.242 21.2648 98.3974 23.8305C96.5529 26.4077 95.6306 30.4642 95.6306 36C95.6306 41.6398 96.5529 45.7194 98.3974 48.2388C100.242 50.7698 103.239 52.0295 107.4 52.0295C111.649 52.0295 114.713 50.7583 116.612 48.2388Z" fill="black"/>
<path d="M152.085 1.45618L176.448 1.45618L177.14 6.70305C179.819 4.76148 183.233 3.15506 187.383 1.89534C191.534 0.635633 195.826 0 200.262 0C208.475 0 214.469 2.13804 218.257 6.41412C222.045 10.6902 223.933 17.2892 223.933 26.2344V70.5323H197.913V28.9965C197.913 25.8876 197.243 23.6571 195.903 22.2934C194.564 20.9297 192.324 20.2594 189.184 20.2594C187.252 20.2594 185.264 20.7217 183.233 21.6462C181.202 22.5708 179.5 23.7612 178.106 25.2173V70.5323H152.085V1.45618Z" fill="black"/>
<path d="M224.01 1.45703L251.14 1.45703L263.601 41.9643L276.062 1.45703L303.192 1.45703L277.303 70.5331L249.888 70.5331L224.01 1.45703Z" fill="black"/>
<path d="M311.383 64.592C303.566 58.4205 299.91 47.7072 299.91 36.1387C299.91 24.8706 302.82 15.5904 309.462 9.17624C316.105 2.76212 326.227 0 339.007 0C350.766 0 360.011 2.86613 366.763 8.59839C373.504 14.3307 376.886 22.1547 376.886 32.0591V44.1592L327.402 44.1592C328.632 47.7534 330.191 50.3538 334.023 51.9602C337.855 53.5666 343.201 54.364 350.042 54.364C354.126 54.364 358.298 54.0289 362.536 53.347C364.029 53.1043 366.489 52.723 367.784 52.434V69.2263C361.317 71.0754 352.699 72 342.982 72C329.906 71.9884 319.201 70.7634 311.383 64.592ZM349.548 29.2969C349.548 25.8761 345.804 18.5143 338.283 18.5143C331.498 18.5143 327.018 25.7605 327.018 29.2969L349.548 29.2969Z" fill="black"/>
<path d="M397.314 35.4114L372.951 1.45703L401.19 1.45703L451.025 70.5331H422.511L411.433 55.0814L400.355 70.5331H371.974L397.314 35.4114Z" fill="black"/>
<path d="M421.887 1.45703L449.994 1.45703L428.42 31.7016L414.146 12.3206L421.887 1.45703Z" fill="black"/>
</svg>
